<svg width="24" height="24" viewBox="0 0 24 24" fill="none" xmlns="http://www.w3.org/2000/svg">
<path fill-rule="evenodd" clip-rule="evenodd" d="M4.32698 5.63803C4 6.27976 4 7.11984 4 8.8V15.2C4 16.8802 4 17.7202 4.32698 18.362C4.6146 18.9265 5.07354 19.3854 5.63803 19.673C6.27976 20 7.11984 20 8.8 20H15.2C16.8802 20 17.7202 20 18.362 19.673C18.9265 19.3854 19.3854 18.9265 19.673 18.362C20 17.7202 20 16.8802 20 15.2V8.8C20 7.11984 20 6.27976 19.673 5.63803C19.3854 5.07354 18.9265 4.6146 18.362 4.32698C17.7202 4 16.8802 4 15.2 4H8.8C7.11984 4 6.27976 4 5.63803 4.32698C5.07354 4.6146 4.6146 5.07354 4.32698 5.63803ZM11.1875 15H7.03977V14.1136L9.1108 12.196C9.62784 11.696 9.92045 11.3693 9.9233 10.9062C9.92045 10.3949 9.53409 10.0767 9.01989 10.0767C8.4858 10.0767 8.12216 10.4148 8.12216 10.9744H6.95455C6.9517 9.83239 7.80966 9.10227 9.02841 9.10227C10.2841 9.10227 11.0739 9.88352 11.0795 10.892C11.0824 11.6364 10.6932 12.1847 9.66761 13.1222L8.8125 13.9545V13.9943H11.1875V15ZM17.0241 12.0852C17.0241 13.9034 15.9503 15 14.1776 15H12.1151V9.18182H14.1946C15.9503 9.18182 17.0241 10.2727 17.0241 12.0852ZM13.3452 10.2358V13.946H14.1264C15.2202 13.946 15.7969 13.3835 15.7969 12.0852C15.7969 10.7926 15.2202 10.2358 14.1293 10.2358H13.3452Z" fill="white"/>
</svg>
