<svg width="24" height="24" viewBox="0 0 24 24" fill="none" xmlns="http://www.w3.org/2000/svg">
<path fill-rule="evenodd" clip-rule="evenodd" d="M6.2 6.00001H12.8C12.8213 6.00001 12.8425 6.00001 12.8638 6.00001C13.3686 5.99995 13.8601 5.99989 14.2765 6.0339C14.7336 6.07125 15.2731 6.15939 15.816 6.43598C16.5686 6.81948 17.1805 7.4314 17.564 8.18405C17.8406 8.7269 17.9288 9.26636 17.9661 9.72355C18.0001 10.1399 18.0001 10.6314 18 11.1362C18 11.1575 18 11.1787 18 11.2V17.8C18 17.8213 18 17.8426 18 17.8638C18.0001 18.3686 18.0001 18.8602 17.9661 19.2765C17.9288 19.7337 17.8406 20.2731 17.564 20.816C17.1805 21.5686 16.5686 22.1805 15.816 22.564C15.2731 22.8406 14.7336 22.9288 14.2765 22.9661C13.8601 23.0001 13.3686 23.0001 12.8638 23C12.8425 23 12.8213 23 12.8 23H6.2C6.17871 23 6.15744 23 6.1362 23C5.63143 23.0001 5.13985 23.0001 4.72354 22.9661C4.26635 22.9288 3.72688 22.8406 3.18403 22.564C2.43138 22.1805 1.81946 21.5686 1.43597 20.816C1.15937 20.2731 1.07124 19.7337 1.03389 19.2765C0.999871 18.8602 0.99993 18.3686 0.99999 17.8638C0.999992 17.8426 0.999995 17.8213 0.999995 17.8V11.2C0.999995 11.1787 0.999992 11.1575 0.99999 11.1362C0.99993 10.6314 0.999871 10.1399 1.03389 9.72355C1.07124 9.26636 1.15937 8.7269 1.43597 8.18405C1.81946 7.4314 2.43138 6.81948 3.18403 6.43598C3.72688 6.15939 4.26635 6.07125 4.72354 6.0339C5.13985 5.99989 5.63143 5.99995 6.1362 6.00001C6.15744 6.00001 6.17871 6.00001 6.2 6.00001ZM3.21798 9.09203C2.99999 9.51985 2.99999 10.0799 2.99999 11.2V17.8C2.99999 18.9201 2.99999 19.4802 3.21798 19.908C3.40973 20.2843 3.71569 20.5903 4.09201 20.782C4.51984 21 5.07989 21 6.2 21H12.8C13.9201 21 14.4802 21 14.908 20.782C15.2843 20.5903 15.5903 20.2843 15.782 19.908C16 19.4802 16 18.9201 16 17.8V11.2C16 10.0799 16 9.51985 15.782 9.09203C15.5903 8.71571 15.2843 8.40974 14.908 8.218C14.4802 8.00001 13.9201 8.00001 12.8 8.00001H6.2C5.07989 8.00001 4.51984 8.00001 4.09201 8.218C3.71569 8.40974 3.40973 8.71571 3.21798 9.09203ZM15.2791 6.21774V8.46255C15.4865 8.63512 15.6581 8.8489 15.782 9.09205C16 9.51988 16 10.0799 16 11.2V12H17.3416C17.5733 12 17.793 11.9813 18 11.9447V11.2L18 11.1362C18 11.0376 18 10.9396 17.9998 10.8424C17.7949 10.9124 17.5582 10.9461 17.2905 10.9461H16.5092V7.23583H16.8912C16.5822 6.91262 16.2193 6.64151 15.816 6.43601C15.6357 6.34415 15.4558 6.27307 15.2791 6.21774ZM14.1153 8.02742C13.8096 8.00234 13.4311 8.00023 12.9385 8.00005C12.9532 7.94175 12.9606 7.88004 12.9602 7.81537C12.9631 7.37787 12.6307 7.07674 12.1335 7.07674C11.6307 7.07674 11.2244 7.36367 11.2102 7.80685H10.0312C10.0483 6.80117 10.946 6.10231 12.1392 6.10231C13.3437 6.10231 14.1477 6.8239 14.1449 7.74151C14.1453 7.84152 14.1352 7.937 14.1153 8.02742Z" fill="white"/>
<path fill-rule="evenodd" clip-rule="evenodd" d="M7.32698 2.63803C7 3.27976 7 4.11984 7 5.8V12.2C7 13.8802 7 14.7202 7.32698 15.362C7.6146 15.9265 8.07354 16.3854 8.63803 16.673C9.27976 17 10.1198 17 11.8 17H18.2C19.8802 17 20.7202 17 21.362 16.673C21.9265 16.3854 22.3854 15.9265 22.673 15.362C23 14.7202 23 13.8802 23 12.2V5.8C23 4.11984 23 3.27976 22.673 2.63803C22.3854 2.07354 21.9265 1.6146 21.362 1.32698C20.7202 1 19.8802 1 18.2 1H11.8C10.1198 1 9.27976 1 8.63803 1.32698C8.07354 1.6146 7.6146 2.07354 7.32698 2.63803ZM14.3608 10.3665C14.3636 11.3608 13.429 12.0795 12.1222 12.0795C10.8438 12.0795 9.93466 11.3722 9.91477 10.3551H11.1534C11.1761 10.7812 11.5824 11.0653 12.125 11.0653C12.6875 11.0653 13.0852 10.7472 13.0824 10.2841C13.0852 9.81534 12.6733 9.4858 12.0142 9.4858H11.4716V8.58239H12.0142C12.5739 8.58239 12.9631 8.27273 12.9602 7.81534C12.9631 7.37784 12.6307 7.0767 12.1335 7.0767C11.6307 7.0767 11.2244 7.36364 11.2102 7.80682H10.0312C10.0483 6.80114 10.946 6.10227 12.1392 6.10227C13.3438 6.10227 14.1477 6.82386 14.1449 7.74148C14.1477 8.39489 13.6989 8.85511 13.0483 8.97159V9.01705C13.9034 9.125 14.3636 9.64205 14.3608 10.3665ZM20.1882 9.08523C20.1882 10.9034 19.1143 12 17.3416 12H15.2791V6.18182H17.3587C19.1143 6.18182 20.1882 7.27273 20.1882 9.08523ZM16.5092 7.2358V10.946H17.2905C18.3842 10.946 18.9609 10.3835 18.9609 9.08523C18.9609 7.79261 18.3842 7.2358 17.2933 7.2358H16.5092Z" fill="white"/>
</svg>
