<svg width="16" height="16" viewBox="0 0 16 16" xmlns="http://www.w3.org/2000/svg">
  <title>
    close
  </title>
  <path d="M9.2734 8.0047l3.4413 3.4414c.2315.229.3227.5646.239.8793-.0838.3147-.3296.5604-.6443.644-.3147.084-.65-.0073-.879-.2388L7.9888 9.289l-3.4365 3.4365c-.356.346-.924.3417-1.275-.0093-.351-.351-.355-.919-.009-1.275l3.4362-3.4364-3.4495-3.4496c-.3444-.3563-.3396-.923.0108-1.2734.3504-.3504.917-.3552 1.2733-.0108L7.989 6.7205l3.4544-3.4545c.2294-.2294.5638-.319.8772-.235.3135.084.5583.3287.6423.6422.0838.3134-.0058.6478-.2352.8772L9.2734 8.0047z" fill="#FFF" fill-rule="evenodd"/>
</svg>
