<svg width="24" height="24" viewBox="0 0 24 24" xmlns="http://www.w3.org/2000/svg" xmlns:xlink="http://www.w3.org/1999/xlink">
  <title>
    fast
  </title>
  <defs>
    <path d="M20.1484 13.5c-2.1517 0-2.5478.862-3.5676 1.3605-1.8533.906-3.0993 2.0726-3.0993 4.2645 0 1.1614-.0103 1.875-.3703 1.875-.6575 0-.9938-.691-1.2988-1.22-.2082.069-.4267.1012-.6457.095-.8437 0-5.463-1.6867-5.463-2.625 0-.551.3703-.847.3703-1.5v-.01c-.0165-.5534-.2867-1.0673-.7308-1.39-.5943-.4305-1.044-1.035-1.2882-1.7323-.1792.0863-.375.1315-.5735.1323C2.7705 12.75 2 11.873 2 10.5c0-1.3694.266-1.875.5556-1.875.3754 0 .463.1875.463.1875s.2568-.941.7798-.941c.2712.0037.5177.1602.639.4057.8802-1.0097 2.159-1.5696 3.4884-1.5272 5.372 0 5.7297 3.375 7.4075 3.375.6214 0 1.111-.8927 1.111-1.125 0-.7206-3.3333-2.0757-3.3333-5.25 0-.496.3935-.75.926-.75.463 0 1.4513.6104 2.037 1.5.895 1.3594.759 3 1.852 3.75.409.2808 1.4518.2603 2.222.75.7705.4897 1.2464 1.3027 1.4816 1.5.217.1903.3502.46.3704.75 0 .3613-.8053 2.25-1.8516 2.25zm-8.889 3c-.9907-.0188-1.9665-.2484-2.864-.6738-.0592.2198-.0925.446-.099.6738 0 .6273.4797.868 2.222 1.5.3916.134.7697.3052 1.1293.5113.0404-.683.1154-1.3632.225-2.0383-.2004.0143-.4022.027-.6133.027z" id="a"/>
  </defs>
  <use fill="#D7DADD" fill-rule="nonzero" xlink:href="#a"/>
</svg>
