<svg width="24" height="24" viewBox="0 0 24 24" xmlns="http://www.w3.org/2000/svg" xmlns:xlink="http://www.w3.org/1999/xlink">
  <title>
    slow
  </title>
  <defs>
    <path d="M18.9337 13.2222l-.7816 1.8963c.3317.2503 1.335 1.1002 1.335 2.2516-.0223.313-.158.607-.3816.827-.0768.0803-.1834.1254-.2946.1243h-2.658c-.1452 0-.2796-.0767-.3534-.2017l-.7136-1.2074c-.1202-.2037-.1468-.4492-.073-.674l.1248-.3805H7.4c.361.4234.5688.9563.5898 1.5125-.022.313-.1577.607-.3813.8267-.0767.0804-.1834.1255-.2946.1244H4.656c-.1452 0-.2796-.0767-.3535-.2017l-.7136-1.2075c-.1204-.2036-.147-.4492-.0732-.674l.0082-.0246c-.629.4832-1.384.7747-2.1743.8396-.1197.0176-.2385-.0372-.303-.1397-.0643-.1025-.062-.2334.0057-.3337C3.4246 13.4015 2.708 6.0022 11.313 6.0022c2.6945-.059 5.2755 1.085 7.0417 3.1217.786-.2422 1.465-.7467 1.9242-1.4292.353-.4534.9724-.603 1.4935-.3607l1.9887.925c.1645.0763.2598.251.235.4308-.2025 1.4554-1.7886 3.7662-5.0625 4.5324z" id="a"/>
  </defs>
  <use fill="#D7DADD" fill-rule="nonzero" xlink:href="#a"/>
</svg>
