<svg width="16" height="16" viewBox="0 0 16 16" xmlns="http://www.w3.org/2000/svg">
  <title>
    play_direction
  </title>
  <path d="M6 4h8c.5523 0 1 .4477 1 1s-.4477 1-1 1H6v2.0584c-.0034.1668-.1118.3182-.2815.3934-.1698.075-.373.0617-.528-.035L.2143 5.3584C.08 5.277 0 5.143 0 5c0-.143.08-.277.2143-.3585l4.9762-3.0583c.155-.0967.3583-.11.528-.035.1698.0752.278.2266.2815.3934V4zm4 6V7.9416c.0034-.1668.1117-.3182.2815-.3934.1697-.075.373-.0617.528.035l4.9762 3.0583C15.92 10.723 16 10.857 16 11c0 .143-.08.277-.2143.3584l-4.9762 3.0584c-.155.0967-.3582.11-.528.035-.1697-.0752-.278-.2266-.2815-.3934V12H2c-.5523 0-1-.4477-1-1s.4477-1 1-1h8z" fill="#FFF" fill-rule="evenodd"/>
</svg>
