<svg version="1.1" viewBox="0.0 0.0 576.0 576.0" fill="none" stroke="none" stroke-linecap="square" stroke-miterlimit="10" xmlns:xlink="http://www.w3.org/1999/xlink" xmlns="http://www.w3.org/2000/svg"><clipPath id="p.0"><path d="m0 0l576.0 0l0 576.0l-576.0 0l0 -576.0z" clip-rule="nonzero"/></clipPath><g clip-path="url(#p.0)"><path fill="#000000" fill-opacity="0.0" d="m0 0l576.0 0l0 576.0l-576.0 0z" fill-rule="evenodd"/><path fill="#ffffff" d="m42.747997 197.31415l100.104675 -100.082184c67.73099 -67.71577 177.5446 -67.71577 245.27559 0l55.92563 55.91307l57.57251 -57.559555l31.67279 171.79166l-171.83029 -31.665665l57.57251 -57.559555l-55.92566 -55.91307l0 0c-53.91696 -53.904846 -141.33362 -53.904846 -195.25058 0l-100.104675 100.082184z" fill-rule="evenodd"/><path fill="#ffffff" d="m523.3779 373.31415l-100.104675 100.082184c-67.73099 67.71573 -177.54462 67.71573 -245.2756 0l-55.925636 -55.913086l-57.572487 57.55957l-31.67279 -171.79166l171.83026 31.66565l-57.57248 57.55957l55.92563 55.913055l0 0c53.916977 53.904846 141.33363 53.904846 195.2506 0l100.104675 -100.082184z" fill-rule="evenodd"/></g></svg>
