<svg version="1.1" viewBox="0.0 0.0 576.0 576.0" fill="none" stroke="none" stroke-linecap="square" stroke-miterlimit="10" xmlns:xlink="http://www.w3.org/1999/xlink" xmlns="http://www.w3.org/2000/svg"><clipPath id="p.0"><path d="m0 0l576.0 0l0 576.0l-576.0 0l0 -576.0z" clip-rule="nonzero"/></clipPath><g clip-path="url(#p.0)"><path fill="#000000" fill-opacity="0.0" d="m0 0l576.0 0l0 576.0l-576.0 0z" fill-rule="evenodd"/><path fill="#ffffff" d="m8.346457 288.0l108.79641 -75.646286l0 56.72493l151.93578 0l0 -153.44759l-56.72493 0l75.646286 -108.79641l75.64627 108.79641l-56.724915 0l0 153.44759l151.93576 0l0 -56.72493l108.79645 75.646286l-108.79645 75.64627l0 -56.724915l-151.93576 0l0 153.44757l56.724915 0l-75.64627 108.79642l-75.646286 -108.79642l56.72493 0l0 -153.44757l-151.93578 0l0 56.724915z" fill-rule="evenodd"/></g></svg>